<svg xmlns="http://www.w3.org/2000/svg" viewBox="0 0 64 64">
  <defs>
    <linearGradient id="g" x1="0" y1="0" x2="1" y2="1">
      <stop offset="0" stop-color="#E23C2A"/>
      <stop offset="1" stop-color="#8A1C16"/>
    </linearGradient>
  </defs>
  <rect width="64" height="64" rx="12" ry="12" fill="#FFF5E9"/>
  <path d="M20 46c2-10 8-22 16-28 3-2 8-1 8 3 0 5-6 8-10 9 6-1 10 2 10 7 0 6-6 11-14 11-6 0-10-1-10-2z" fill="url(#g)"/>
  <path d="M34 13c-2 3-5 5-8 6 2-4 5-7 8-8 1 0 2 1 0 2z" fill="#2E7D32"/>
  <text x="18" y="50" font-family="Georgia, 'Times New Roman', serif" font-size="24" fill="#111111">A</text>
  
</svg>


